<?xml version="1.0" standalone="no"?>
<!DOCTYPE svg PUBLIC "-//W3C//DTD SVG 20010904//EN"
 "http://www.w3.org/TR/2001/REC-SVG-20010904/DTD/svg10.dtd">
<svg version="1.0" xmlns="http://www.w3.org/2000/svg"
 width="32.000000pt" height="32.000000pt" viewBox="0 0 32.000000 32.000000"
 preserveAspectRatio="xMidYMid meet">

<g transform="translate(0.000000,32.000000) scale(0.100000,-0.100000)"
fill="#000000" stroke="none">
<path d="M68 236 c-14 -5 -32 -23 -40 -40 -15 -30 -17 -101 -3 -114 11 -11
139 -13 155 -3 12 8 12 13 2 23 -18 18 -15 62 7 84 14 15 16 24 8 41 -8 18
-13 20 -24 12 -7 -6 -13 -8 -13 -3 0 12 -59 11 -92 0z"/>
</g>
</svg>
