<?xml version="1.0" encoding="UTF-8" standalone="no"?>
<svg
   xmlns:dc="http://purl.org/dc/elements/1.1/"
   xmlns:cc="http://creativecommons.org/ns#"
   xmlns:rdf="http://www.w3.org/1999/02/22-rdf-syntax-ns#"
   xmlns:svg="http://www.w3.org/2000/svg"
   xmlns="http://www.w3.org/2000/svg"
   viewBox="0 0 755.90668 188.97333"
   height="188.97333"
   width="755.90668"
   xml:space="preserve"
   id="svg2"
   version="1.1"><metadata
     id="metadata8"><rdf:RDF><cc:Work
         rdf:about=""><dc:format>image/svg+xml</dc:format><dc:type
           rdf:resource="http://purl.org/dc/dcmitype/StillImage" /></cc:Work></rdf:RDF></metadata><defs
     id="defs6" /><g
     transform="matrix(1.3333333,0,0,-1.3333333,0,188.97333)"
     id="g10"><g
       transform="scale(0.1)"
       id="g12"><path
         id="path14"
         style="fill:#040606;fill-opacity:1;fill-rule:nonzero;stroke:none"
         d="m 368.551,614.914 70.398,-195.758 h 97.422 l -70.402,195.758 h -97.418 v 0" /><path
         id="path16"
         style="fill:#040606;fill-opacity:1;fill-rule:nonzero;stroke:none"
         d="m 255.984,997.328 h 149.192 c 85.129,0 197.715,-16.394 197.715,-178.625 0,-151.023 -107.094,-168.277 -197.715,-168.277 H 255.984 v 88.883 l 153.774,0.863 c 91.527,0.859 97.937,42.285 97.937,79.391 0,37.109 -6.41,88.878 -97.937,88.878 H 255.984 v 88.887 0" /><path
         id="path18"
         style="fill:#040606;fill-opacity:1;fill-rule:nonzero;stroke:none"
         d="m 1389.68,997.328 h 149.19 c 85.13,0 197.71,-16.394 197.71,-178.625 0,-151.023 -107.09,-168.277 -197.71,-168.277 h -149.19 v 88.883 l 153.77,0.863 c 91.53,0.859 97.94,42.285 97.94,79.391 0,37.109 -6.41,88.878 -97.94,88.878 h -153.77 v 88.887 0" /><path
         id="path20"
         style="fill:#040606;fill-opacity:1;fill-rule:nonzero;stroke:none"
         d="m 117.223,419.156 h 92.507 v 578.18 h -92.507 v -578.18 0" /><path
         id="path22"
         style="fill:#040606;fill-opacity:1;fill-rule:nonzero;stroke:none"
         d="m 2843.13,614.914 70.41,-195.758 h 97.43 l -70.41,195.758 h -97.43 v 0" /><path
         id="path24"
         style="fill:#040606;fill-opacity:1;fill-rule:nonzero;stroke:none"
         d="m 2730.57,997.328 h 149.2 c 85.12,0 197.71,-16.394 197.71,-178.625 0,-151.023 -107.1,-168.277 -197.71,-168.277 h -149.2 v 88.883 l 153.78,0.863 c 91.53,0.859 97.94,42.285 97.94,79.391 0,37.109 -6.41,88.878 -97.94,88.878 h -153.78 v 88.887 0" /><path
         id="path26"
         style="fill:#040606;fill-opacity:1;fill-rule:nonzero;stroke:none"
         d="m 2591.81,419.156 h 92.51 v 578.18 h -92.51 v -578.18 0" /><path
         id="path28"
         style="fill:#040606;fill-opacity:1;fill-rule:nonzero;stroke:none"
         d="m 1250.44,419.156 h 92.51 v 578.18 h -92.51 v -578.18 0" /><path
         id="path30"
         style="fill:#040606;fill-opacity:1;fill-rule:nonzero;stroke:none"
         d="m 834.16,419.156 300.96,1.528 v 90.98 l -300.96,-1.527 v -90.981 0" /><path
         id="path32"
         style="fill:#040606;fill-opacity:1;fill-rule:nonzero;stroke:none"
         d="m 834.16,660.344 256.57,1.527 v 90.977 L 834.16,751.32 v -90.976 0" /><path
         id="path34"
         style="fill:#040606;fill-opacity:1;fill-rule:nonzero;stroke:none"
         d="m 834.16,904.82 h 292.09 v 92.508 H 834.16 v -92.508 0" /><path
         id="path36"
         style="fill:#040606;fill-opacity:1;fill-rule:nonzero;stroke:none"
         d="m 695.395,419.984 h 92.511 V 998.16 h -92.511 v -578.176 0" /><path
         id="path38"
         style="fill:#040606;fill-opacity:1;fill-rule:nonzero;stroke:none"
         d="m 4742.64,660.344 256.56,1.527 v 90.977 l -256.56,-1.528 v -90.976 0" /><path
         id="path40"
         style="fill:#040606;fill-opacity:1;fill-rule:nonzero;stroke:none"
         d="m 4742.64,904.82 h 292.08 v 92.508 h -292.08 v -92.508 0" /><path
         id="path42"
         style="fill:#040606;fill-opacity:1;fill-rule:nonzero;stroke:none"
         d="m 4603.86,419.984 h 92.52 V 998.16 h -92.52 v -578.176 0" /><path
         id="path44"
         style="fill:#040606;fill-opacity:1;fill-rule:nonzero;stroke:none"
         d="m 5251.09,419.156 300.98,1.528 v 90.98 l -300.98,-1.527 v -90.981 0" /><path
         id="path46"
         style="fill:#040606;fill-opacity:1;fill-rule:nonzero;stroke:none"
         d="m 5251.09,660.344 256.6,1.527 v 90.977 l -256.6,-1.528 v -90.976 0" /><path
         id="path48"
         style="fill:#040606;fill-opacity:1;fill-rule:nonzero;stroke:none"
         d="m 5251.09,904.82 h 292.1 v 92.508 h -292.1 v -92.508 0" /><path
         id="path50"
         style="fill:#040606;fill-opacity:1;fill-rule:nonzero;stroke:none"
         d="m 5112.34,419.984 h 92.52 V 998.16 h -92.52 v -578.176 0" /><path
         id="path52"
         style="fill:#040606;fill-opacity:1;fill-rule:nonzero;stroke:none"
         d="m 1945.12,534.789 h 115.63 l -37.72,115.641 h -38.55 l -39.36,-115.641 v 0" /><path
         id="path54"
         style="fill:#040606;fill-opacity:1;fill-rule:nonzero;stroke:none"
         d="M 1974.46,832.965 1817.4,419.156 h -104.41 l 212.28,536.879 49.19,-123.07 v 0" /><path
         id="path56"
         style="fill:#040606;fill-opacity:1;fill-rule:nonzero;stroke:none"
         d="m 1953.75,997.336 233,-578.18 h 104.41 l -234.72,578.18 h -102.69 v 0" /><path
         id="path58"
         style="fill:#040606;fill-opacity:1;fill-rule:nonzero;stroke:none"
         d="m 4188.45,534.789 h 115.63 l -37.72,115.641 h -38.56 l -39.35,-115.641 v 0" /><path
         id="path60"
         style="fill:#040606;fill-opacity:1;fill-rule:nonzero;stroke:none"
         d="M 4217.79,832.965 4060.72,419.156 h -104.43 l 212.29,536.879 49.21,-123.07 v 0" /><path
         id="path62"
         style="fill:#040606;fill-opacity:1;fill-rule:nonzero;stroke:none"
         d="m 4197.07,997.336 232.99,-578.18 h 104.42 l -234.72,578.18 h -102.69 v 0" /><path
         id="path64"
         style="fill:#040606;fill-opacity:1;fill-rule:nonzero;stroke:none"
         d="m 2383.67,419.156 h 92.51 v 578.18 h -92.51 v -578.18 0" /><path
         id="path66"
         style="fill:#040606;fill-opacity:1;fill-rule:nonzero;stroke:none"
         d="M 3938.86,618.082 V 601.91 c 0,-91.379 -71.19,-182.754 -223.2,-182.754 -168.22,0 -245.02,103.504 -245.02,251.485 v 9.707 h 97.04 l 0.8,-18.594 c 4.84,-105.934 48.52,-160.113 147.18,-160.113 93.81,0 130.18,59.031 130.18,100.269 v 16.172 h 93.02 v 0" /><path
         id="path68"
         style="fill:#040606;fill-opacity:1;fill-rule:nonzero;stroke:none"
         d="m 3938.86,798.41 v 16.176 c 0,91.371 -63.09,182.75 -223.2,182.75 -168.22,0 -245.02,-103.508 -245.02,-251.484 v -9.707 h 97.04 l 0.8,18.601 c 4.84,105.934 48.52,160.109 147.18,160.109 93.81,0 130.18,-59.031 130.18,-100.269 V 798.41 h 93.02 v 0" /></g></g></svg>